<svg viewBox="0 0 1200 600" xmlns="http://www.w3.org/2000/svg" role="img" font-family="Poppins, system-ui, -apple-system, Segoe UI, Roboto, sans-serif">
  <title>Toolport lazy discovery: every server's tools collapse to 3 meta-tools</title>
  <desc>A cloud of many tool names on the left funnels through the Toolport gateway into three meta-tools on the right.</desc>
  <rect x="1" y="1" width="1198" height="598" rx="24" fill="#1E3A66" stroke="rgba(255,255,255,0.10)"/>

  <!-- header: porthole mark + wordmark -->
  <g transform="translate(56,40)">
    <circle cx="18" cy="18" r="16" fill="none" stroke="#FFFFFF" stroke-width="7"/>
    <circle cx="18" cy="2"  r="2.6" fill="#FFFFFF"/>
    <circle cx="34" cy="18" r="2.6" fill="#FFFFFF"/>
    <circle cx="18" cy="34" r="2.6" fill="#FFFFFF"/>
    <circle cx="2"  cy="18" r="2.6" fill="#FFFFFF"/>
    <circle cx="18" cy="18" r="4.5" fill="#F97316"/>
    <text x="50" y="27" font-size="30" font-weight="600" fill="#FFFFFF">Toolport</text>
  </g>
  <text x="1144" y="68" text-anchor="end" font-size="17" fill="#9db0cc" font-family="ui-monospace, Menlo, monospace">local-first MCP gateway</text>

  <!-- funnel lines: cluster -> gateway -->
  <g stroke="#F97316" stroke-width="1.5" opacity="0.30">
    <line x1="430" y1="158" x2="524" y2="254"/>
    <line x1="430" y1="206" x2="524" y2="254"/>
    <line x1="430" y1="254" x2="524" y2="254"/>
    <line x1="430" y1="302" x2="524" y2="254"/>
    <line x1="430" y1="350" x2="524" y2="254"/>
  </g>
  <!-- gateway -> 3 metas -->
  <g stroke="#F97316" stroke-width="2.2" opacity="0.65">
    <line x1="588" y1="254" x2="748" y2="182"/>
    <line x1="588" y1="254" x2="748" y2="254"/>
    <line x1="588" y1="254" x2="748" y2="326"/>
  </g>

  <!-- left cluster: many tools -->
  <g font-family="ui-monospace, Menlo, monospace" font-size="14" fill="#9db0cc">
    <g><rect x="64" y="140" width="164" height="36" rx="8" fill="#16294A" stroke="rgba(255,255,255,0.10)"/><text x="78" y="163">list_charges</text></g>
    <g><rect x="240" y="140" width="164" height="36" rx="8" fill="#16294A" stroke="rgba(255,255,255,0.10)"/><text x="254" y="163">run_sql</text></g>
    <g><rect x="64" y="188" width="164" height="36" rx="8" fill="#16294A" stroke="rgba(255,255,255,0.10)"/><text x="78" y="211">create_issue</text></g>
    <g><rect x="240" y="188" width="164" height="36" rx="8" fill="#16294A" stroke="rgba(255,255,255,0.10)"/><text x="254" y="211">send_email</text></g>
    <g><rect x="64" y="236" width="164" height="36" rx="8" fill="#16294A" stroke="rgba(255,255,255,0.10)"/><text x="78" y="259">deploy</text></g>
    <g><rect x="240" y="236" width="164" height="36" rx="8" fill="#16294A" stroke="rgba(255,255,255,0.10)"/><text x="254" y="259">get_logs</text></g>
    <g><rect x="64" y="284" width="164" height="36" rx="8" fill="#16294A" stroke="rgba(255,255,255,0.10)"/><text x="78" y="307">create_pr</text></g>
    <g><rect x="240" y="284" width="164" height="36" rx="8" fill="#16294A" stroke="rgba(255,255,255,0.10)"/><text x="254" y="307">query</text></g>
    <g><rect x="64" y="332" width="164" height="36" rx="8" fill="#16294A" stroke="rgba(255,255,255,0.10)"/><text x="78" y="355">list_tables</text></g>
    <g><rect x="240" y="332" width="164" height="36" rx="8" fill="#16294A" stroke="rgba(255,255,255,0.10)"/><text x="254" y="355">get_metrics</text></g>
  </g>

  <!-- gateway node: porthole mark -->
  <circle cx="556" cy="254" r="26" fill="none" stroke="#FFFFFF" stroke-width="10"/>
  <circle cx="556" cy="228" r="4" fill="#FFFFFF"/>
  <circle cx="582" cy="254" r="4" fill="#FFFFFF"/>
  <circle cx="556" cy="280" r="4" fill="#FFFFFF"/>
  <circle cx="530" cy="254" r="4" fill="#FFFFFF"/>
  <circle cx="556" cy="254" r="8" fill="#F97316"/>

  <!-- right: 3 meta-tools -->
  <g font-family="ui-monospace, Menlo, monospace" font-size="17" fill="#FB923C">
    <g><rect x="748" y="156" width="388" height="52" rx="10" fill="rgba(249,115,22,0.10)" stroke="rgba(249,115,22,0.5)"/><text x="770" y="189">toolport_search_tools</text></g>
    <g><rect x="748" y="228" width="388" height="52" rx="10" fill="rgba(249,115,22,0.10)" stroke="rgba(249,115,22,0.5)"/><text x="770" y="261">toolport_call_tool</text></g>
    <g><rect x="748" y="300" width="388" height="52" rx="10" fill="rgba(249,115,22,0.10)" stroke="rgba(249,115,22,0.5)"/><text x="770" y="333">toolport_status</text></g>
  </g>

  <!-- captions -->
  <text x="264" y="402" text-anchor="middle" font-size="15" fill="#9db0cc" font-family="ui-monospace, Menlo, monospace">every tool, across all your servers</text>
  <text x="942" y="402" text-anchor="middle" font-size="15" fill="#FB923C" font-family="ui-monospace, Menlo, monospace">the 3 your agent loads</text>

  <!-- tagline -->
  <line x1="56" y1="444" x2="1144" y2="444" stroke="rgba(255,255,255,0.12)"/>
  <text x="600" y="498" text-anchor="middle" font-size="28" font-weight="600" fill="#FFFFFF">Three tools in context, not hundreds.</text>
  <text x="600" y="532" text-anchor="middle" font-size="16" fill="#9db0cc">Measured: 97% less tool overhead per request, ~90% fewer tokens, same results.</text>
</svg>
